<?xml version="1.0" encoding="UTF-8"?>
<svg width="1280" height="260" viewBox="0 0 1280 260" fill="none" xmlns="http://www.w3.org/2000/svg">
  <defs>
    <linearGradient id="bgGrad" x1="0" y1="0" x2="0" y2="1" gradientUnits="objectBoundingBox">
      <stop offset="0%" stop-color="#F3D9C2">
        <animate attributeName="offset" values="0%;10%;0%" dur="12s" repeatCount="indefinite"/>
      </stop>
      <stop offset="100%" stop-color="#E9C2A8">
        <animate attributeName="offset" values="100%;90%;100%" dur="12s" repeatCount="indefinite"/>
      </stop>
    </linearGradient>
    <pattern id="paper" width="12" height="12" patternUnits="userSpaceOnUse" patternTransform="rotate(45)">
      <rect width="12" height="12" fill="transparent"/>
      <rect x="0" y="0" width="12" height="1" fill="rgba(0,0,0,0.06)"/>
      <animate attributeName="patternTransform" attributeType="XML" type="translate" values="0,0;12,0;0,0" dur="10s" repeatCount="indefinite"/>
    </pattern>
  </defs>

  <!-- Frame -->
  <rect x="10" y="10" width="1260" height="240" rx="14" fill="url(#bgGrad)"/>
  <rect x="10" y="10" width="1260" height="240" rx="14" fill="url(#paper)"/>
  <rect x="10" y="10" width="1260" height="240" rx="14" fill="none" stroke="#1f2328" stroke-width="6"/>

  <!-- Title bar -->
  <rect x="10" y="10" width="1260" height="46" rx="14" fill="#F1D3BF" stroke="#1f2328" stroke-width="6"/>
  <circle cx="40" cy="33" r="8" fill="#ff5f57" stroke="#1f2328" stroke-width="3">
    <animate attributeName="opacity" values="1;0.5;1" dur="2s" repeatCount="indefinite"/>
  </circle>
  <circle cx="68" cy="33" r="8" fill="#febc2e" stroke="#1f2328" stroke-width="3">
    <animate attributeName="opacity" values="1;0.5;1" dur="2.5s" repeatCount="indefinite"/>
  </circle>
  <circle cx="96" cy="33" r="8" fill="#28c840" stroke="#1f2328" stroke-width="3">
    <animate attributeName="opacity" values="1;0.5;1" dur="3s" repeatCount="indefinite"/>
  </circle>

  <!-- Title text -->
  <g id="titleGroup">
    <text x="640" y="130" text-anchor="middle" font-family="'Inter', 'Segoe UI', Arial, sans-serif" font-weight="700" font-size="52" fill="#1f2328">Aashish Thakuri</text>
    <text x="640" y="165" text-anchor="middle" font-family="'Inter', 'Segoe UI', Arial, sans-serif" font-weight="600" font-size="22" fill="#4c3b2f">Full‑Stack Developer • Web Enthusiast</text>
    <animateTransform attributeName="transform" type="translate" dur="6s" values="0 0; 0 -2; 0 0; 0 2; 0 0" repeatCount="indefinite"/>
  </g>

  <!-- Subtle twinkles -->
  <g opacity="0.35">
    <polygon points="580,110 584,118 592,122 584,126 580,134 576,126 568,122 576,118" fill="#8C6B55">
      <animate attributeName="opacity" values="0;1;0" dur="3s" repeatCount="indefinite"/>
    </polygon>
    <polygon points="700,150 703,156 709,159 703,162 700,168 697,162 691,159 697,156" fill="#8C6B55">
      <animate attributeName="opacity" values="0;1;0" dur="4s" begin="1s" repeatCount="indefinite"/>
    </polygon>
    <polygon points="480,160 483,165 488,168 483,171 480,176 477,171 472,168 477,165" fill="#8C6B55">
      <animate attributeName="opacity" values="0;1;0" dur="3.5s" begin="0.5s" repeatCount="indefinite"/>
    </polygon>
  </g>

  <!-- Stickers removed: external GIFs are blocked in SVG by many viewers -->

  <!-- Bottom ribbon (animated) -->
  <path d="M40 200 C 380 160, 900 240, 1240 200" stroke="#CFA98E" stroke-width="8" fill="none" opacity="0.65" stroke-linecap="round" stroke-dasharray="260 40">
    <animate attributeName="stroke-dashoffset" from="0" to="-600" dur="8s" repeatCount="indefinite" />
  </path>
</svg>
